<svg width="24" height="24" viewBox="0 0 24 24" fill="none" xmlns="http://www.w3.org/2000/svg">
<rect width="24" height="24" rx="12" fill="#333333"/>
<path d="M17.2206 14.0966C16.8867 13.5219 16.4888 12.4315 16.4888 10.5V10.1008C16.4888 7.60976 14.4903 5.56834 12.034 5.5501C12.0225 5.55004 12.0111 5.54999 11.9996 5.54999C10.8077 5.55154 9.66519 6.02651 8.82344 6.87042C7.98169 7.71433 7.50966 8.85805 7.51117 10.05V10.5C7.51117 12.4314 7.11297 13.5218 6.77898 14.0964C6.69921 14.233 6.65687 14.3883 6.65626 14.5465C6.65564 14.7048 6.69676 14.8604 6.77546 14.9977C6.85417 15.1349 6.96768 15.249 7.10455 15.3285C7.24142 15.4079 7.39681 15.4498 7.55506 15.45H9.74974C9.74974 16.0467 9.98679 16.619 10.4087 17.041C10.8307 17.4629 11.403 17.7 11.9997 17.7C12.5965 17.7 13.1688 17.4629 13.5907 17.041C14.0127 16.619 14.2497 16.0467 14.2497 15.45H16.4444C16.6026 15.4498 16.758 15.4079 16.8949 15.3285C17.0317 15.2491 17.1452 15.135 17.2239 14.9978C17.3026 14.8605 17.3438 14.7049 17.3432 14.5467C17.3426 14.3885 17.3003 14.2332 17.2206 14.0966Z" fill="white"/>
</svg>
