<svg width="14" height="14" viewBox="0 0 14 14" fill="none" xmlns="http://www.w3.org/2000/svg">
<path d="M1.16675 5.79982C1.16675 3.56317 2.94743 1.75 5.14403 1.75C6.98066 1.75 8.52655 3.01764 8.98385 4.74055C9.34371 4.55464 9.75079 4.44987 10.1819 4.44987C11.6463 4.44987 12.8334 5.65865 12.8334 7.14977C12.8334 8.2122 12.2307 9.13132 11.3545 9.57197C11.2815 9.60867 11.2003 9.625 11.1186 9.625H4.37508" stroke="#8AA2D7" stroke-width="1.16667" stroke-linecap="round" stroke-linejoin="round"/>
<path d="M4.37492 9.625H3.49992C2.85559 9.625 2.33325 10.1473 2.33325 10.7917C2.33325 11.436 2.85559 11.9583 3.49992 11.9583H4.37492" stroke="#8AA2D7" stroke-width="1.16667" stroke-linecap="round" stroke-linejoin="round"/>
<path d="M6.41667 5.25H5.54167C4.89735 5.25 4.375 5.77235 4.375 6.41667C4.375 7.06099 4.89735 7.58333 5.54167 7.58333H6.41667" stroke="#8AA2D7" stroke-width="1.16667" stroke-linecap="round" stroke-linejoin="round"/>
<path d="M5.54175 7.58337H9.33341" stroke="#8AA2D7" stroke-width="1.16667" stroke-linecap="round" stroke-linejoin="round"/>
</svg>
