<svg width="32" height="32" viewBox="0 0 32 32" fill="none" xmlns="http://www.w3.org/2000/svg">
<path d="M16 7C19.3137 7 22 9.68629 22 13C22 16.3137 19.3137 19 16 19C12.6863 19 10 16.3137 10 13C10 9.68629 12.6863 7 16 7Z" fill="black" stroke="black" stroke-width="2" stroke-miterlimit="10"/>
<path d="M3.87354 26.9988C5.10299 24.8708 6.8708 23.1037 8.99939 21.8752C11.128 20.6467 13.5424 20 16.0001 20C18.4577 20 20.8721 20.6468 23.0007 21.8754C25.1292 23.1039 26.897 24.871 28.1264 26.9991" fill="black"/>
<path d="M3.87354 26.9988C5.10299 24.8708 6.8708 23.1037 8.99939 21.8752C11.128 20.6467 13.5424 20 16.0001 20C18.4577 20 20.8721 20.6468 23.0007 21.8754C25.1292 23.1039 26.897 24.871 28.1264 26.9991L3.87354 26.9988Z" stroke="black" stroke-width="2" stroke-linecap="round" stroke-linejoin="round"/>
</svg>
